# xmcd
#
# Track frame offsets: 
#        150
#        24077
#        39476
#        62854
#        83596
#        99145
#        118568
#        136091
#        157200
#        177923
#        192928
#        207733
#        226665
#        245763
#        263535
#        287458
#
# Disc length: 4120 seconds
#
# Revision: 2
# Processed by: cddbd v1.5.2PL0 Copyright (c) Steve Scherf et al.
# Submitted via: ExactAudioCopyFreeDBPlugin 1.0
#
DISCID=ce101610
DTITLE=黄家驹 - 黄家驹【不死传奇】A
DYEAR=2018
DGENRE=JPop
TTITLE0=海阔天空
TTITLE1=半斤八两
TTITLE2=情人
TTITLE3=为了你 为了我
TTITLE4=点解 点解
TTITLE5=厌倦寂寞
TTITLE6=战胜心魔
TTITLE7=无声的告别
TTITLE8=全是爱
TTITLE9=命运是你家
TTITLE10=BYE-BYE
TTITLE11=走不开的快乐
TTITLE12=昔日舞曲
TTITLE13=冲开一切
TTITLE14=遥望
TTITLE15=长城（日文版）
EXTD=
EXTT0=
EXTT1=
EXTT2=
EXTT3=
EXTT4=
EXTT5=
EXTT6=
EXTT7=
EXTT8=
EXTT9=
EXTT10=
EXTT11=
EXTT12=
EXTT13=
EXTT14=
EXTT15=
PLAYORDER=
